# xmcd CD database file
# Copyright (C) 1993-1998 Ti Kan
#
# Track frame offsets:
#	150
#	9945
#	20948
#	34603
#	43093
#	52888
#	66338
#	83150
#	98098
#	111333
#	121285
#	135010
#	148810
#	164070
#
# Disc length: 2340 seconds
#
# Revision: 2
# Processed by: cddbd v1.4b41PL1 Copyright (c) Steve Scherf et al.
# Submitted via: CDmax 1.5.4
#
DISCID=bb09220e
DTITLE=Various Artist - Great Country Hits - CD 1 of 2
DYEAR=1900
DGENRE=
TTITLE0=Ballad Of A Teenage Queen (Johnny Cash)
TTITLE1=Just Out Of Reach (Patsy Cline)
TTITLE2=Vaya Con Dios (Roy Drusky)
TTITLE3=I Love You Because (Jerry Lee Lewis)
TTITLE4=Please Help Me I'm Falling (Hank Locklin)
TTITLE5=Tennessee Waltz (Patti Page)
TTITLE6=Blue Bayou (Lynn Anderson)
TTITLE7=Jezebel (Frankie Laine)
TTITLE8=Ruby Don't Take Your Love To Town (Kenny Rogers)
TTITLE9=Your Cheatin' Heart (Jerry Lee Lewis)
TTITLE10=Tennessee (Carl Perkins)
TTITLE11=It's A Good Year For The Roses (Georges Jones)
TTITLE12=Blanket On The Ground (Billie Jo Spears)
TTITLE13=Before The Next Teardrop Falls (Jeannie C. Riley)
EXTD=
EXTT0=
EXTT1=
EXTT2=
EXTT3=
EXTT4=
EXTT5=
EXTT6=
EXTT7=
EXTT8=
EXTT9=
EXTT10=
EXTT11=
EXTT12=
EXTT13=
PLAYORDER=
